<?xml version="1.0" encoding="iso-8859-1"?>
<!-- Uploaded to: SVG Repo, www.svgrepo.com, Generator: SVG Repo Mixer Tools -->
<svg fill="#000000" height="800px" width="800px" version="1.1" id="Layer_1" xmlns="http://www.w3.org/2000/svg" xmlns:xlink="http://www.w3.org/1999/xlink" 
	 viewBox="0 0 512 512" xml:space="preserve">
<g>
	<g>
		<g>
			<path d="M375.818,226.845c-3.095-3.094-8.109-3.094-11.204,0l-15.505,15.505c-3.093,3.093-3.093,8.109,0,11.202
				c1.547,1.546,3.575,2.32,5.602,2.32s4.055-0.773,5.602-2.32l15.505-15.505C378.912,234.954,378.912,229.938,375.818,226.845z"/>
			<path d="M492.117,399.748H429.88c0.149-6.561,0.588-14.499,1.643-22.711c2.018-15.69-0.224-31.954-1.707-42.716
				c-0.55-3.993-1.027-7.443-1.05-9.22c-0.057-4.295,0.308-10.44,1.063-17.977c1.716-0.632,3.305-1.606,4.652-2.883
				c2.7-2.558,4.247-6.158,4.247-9.879v-9.69c0-11.715-9.146-21.58-20.822-22.459c-7.387-0.557-17.131-1.233-28.566-1.896
				c14.839-17.645,16.965-41.964,17.161-52.065c0.063-3.212-1.201-6.355-3.467-8.622c-2.269-2.268-5.408-3.532-8.621-3.468
				c-10.796,0.211-37.823,2.621-55.596,20.394c-11.942,11.943-17.02,27.903-19.097,41.155c-6.689-0.102-13.488-0.161-20.351-0.161
				c-11.228,0-21.312-0.076-30.457-0.21l-27.888-27.888l14.75-14.75l30.651,30.65c1.547,1.546,3.575,2.32,5.602,2.32
				s4.055-0.773,5.602-2.32c3.093-3.093,3.093-8.109,0-11.202l-36.251-36.252c-0.003-0.003-0.007-0.006-0.011-0.01l-31.413-31.412
				h0.001c-4.654-4.656-10.845-7.219-17.427-7.219c-6.527,0-12.665,2.52-17.306,7.099L88.842,59.975
				c-2.861-2.861-6.665-4.438-10.713-4.438c-4.046,0-7.85,1.576-10.713,4.438l-7.07,7.071c-2.862,2.861-4.438,6.665-4.438,10.712
				c0,4.047,1.576,7.851,4.437,10.711l106.379,106.38c-4.579,4.641-7.099,10.779-7.099,17.306c0,6.583,2.564,12.772,7.219,17.427
				l24.336,24.337c-14.146-1.018-26.401-1.894-42.377-1.894c-21.308,0-43.635,4.588-58.613,8.438
				c-9.957,2.558-16.912,11.528-16.912,21.814v10.23c0,4.333,1.992,8.305,5.464,10.896c0.114,0.086,0.237,0.151,0.352,0.232
				c0.436,10.061,1.477,19.131,3.112,27.006c1.166,5.612,0.331,10.597-0.728,16.908c-1.222,7.289-2.743,16.36-1.163,28.433
				c1.014,7.742,0.818,16.74,0.378,23.767H19.883C8.919,399.748,0,408.668,0,419.632v16.947c0,10.963,8.919,19.883,19.883,19.883
				h472.234c10.964,0,19.883-8.919,19.883-19.883v-16.947C512,408.668,503.081,399.748,492.117,399.748z M350.019,227.755
				c4.317-4.315,16.613-14.092,40.471-15.584c-1.491,23.856-11.268,36.154-15.584,40.47c-2.418,2.417-5.284,4.585-8.494,6.495
				c-9.627-0.432-19.93-0.814-30.674-1.095C337.506,248.496,341.41,236.365,350.019,227.755z M246.006,256.838
				c-12.029-0.359-22.062-0.825-30.827-1.326l-0.109-0.109l14.75-14.75L246.006,256.838z M178.047,218.379
				c-1.662-1.662-2.578-3.873-2.578-6.224s0.916-4.56,2.579-6.224l5.48-5.481c3.093-3.094,3.093-8.109,0-11.202L72.039,77.759
				l6.091-6.092l111.489,111.49c3.093,3.094,8.109,3.095,11.202,0.001l5.482-5.481c1.662-1.662,3.873-2.578,6.224-2.578
				s4.56,0.916,6.224,2.578c0,0,0,0,0.001,0l25.821,25.821l-20.347,20.347c-0.002,0.002-0.003,0.003-0.005,0.005
				c-0.002,0.002-0.003,0.003-0.005,0.005l-20.347,20.347L178.047,218.379z M89.121,282.275c0-3.051,2.061-5.712,5.011-6.47
				c11.538-2.966,33.984-7.939,54.672-7.939c15.493,0,26.953,0.825,41.465,1.869c6.092,0.438,12.593,0.905,19.969,1.354
				c0.512,0.102,1.033,0.155,1.554,0.155c0.192,0,0.384-0.014,0.577-0.027c19.761,1.165,45.876,2.173,87.003,2.173
				c48.73,0,94.438,2.894,117.346,4.62c3.46,0.261,6.17,3.186,6.17,6.661v7.312c-13.191-0.836-35.403-3.119-56.928-5.331
				c-25.668-2.638-49.911-5.13-58.457-5.13c-8.94,0-22.601,2.568-37.065,5.285c-14.398,2.706-29.284,5.504-38.388,5.504
				c-9.111,0-28.356-2.67-46.966-5.251c-19.719-2.735-38.345-5.32-49.336-5.536c-0.431-0.008-0.867-0.013-1.306-0.013
				c-14.694,0-33.62,4.659-45.32,8.007V282.275z M96.809,383.915c22.018,4.262,69.365,11.791,109.765,7.129
				c41.016-4.735,94.852,0.511,120.724,3.031c5.26,0.512,9.416,0.917,12.057,1.097c4.575,0.311,9.114,0.45,13.59,0.45
				c23.975,0,46.09-3.981,61.55-6.766c-0.249,3.894-0.39,7.563-0.461,10.892H96.57C96.86,394.793,97,389.344,96.809,383.915z
				 M411.71,373.261c-17.58,3.166-44.142,7.954-71.279,6.106c-2.41-0.164-6.464-0.559-11.597-1.058
				c-26.418-2.573-81.386-7.926-124.074-3.002c-34.027,3.927-78.751-1.504-109.252-7.791c-0.186-6.258,0.609-11.448,1.446-16.457
				c17.671,2.714,41.97,7.667,58.265,12.563c10.559,3.173,19.256,4.372,26.893,4.372c11.406,0,20.447-2.675,29.799-5.442
				c10.693-3.164,21.74-6.44,38.468-6.054c13.271,0.302,29.112,2.439,43.087,4.324c11.637,1.569,21.685,2.926,28.175,2.926
				c20.072,0,39.64-3.305,56.905-6.221c14.261-2.409,26.913-4.542,37.48-4.562c0.494,6.274,0.679,13.003,0.067,19.514
				C414.702,372.723,413.259,372.982,411.71,373.261z M413.789,308.415c-24.779,2.466-75.5,4.955-108.802,1.208
				c-18.712-2.104-45.956,0.582-74.8,3.427c-21.107,2.082-42.934,4.235-60.311,4.235c-18.378,0-44.555-4.212-63.669-7.287
				c-3.995-0.643-7.658-1.231-10.979-1.742c-0.091-1.293-0.169-2.604-0.237-3.934c16.46-4.621,31.011-7.142,40.444-6.959
				c10.055,0.199,29.075,2.837,47.471,5.388c20.024,2.778,38.937,5.401,49.142,5.401c10.578,0,26.204-2.936,41.314-5.776
				c13.114-2.464,26.674-5.013,34.138-5.013c7.734,0,32.696,2.566,56.837,5.047c17.817,1.831,36.098,3.71,49.562,4.798
				C413.862,307.615,413.825,308.017,413.789,308.415z M414.122,336.485c0.03,0.216,0.061,0.449,0.092,0.671
				c-11.609,0.245-24.663,2.443-38.308,4.747c-16.651,2.813-35.523,5.999-54.266,5.999c-5.427,0-15.447-1.352-26.056-2.783
				c-14.386-1.94-30.692-4.14-44.844-4.462c-19.205-0.434-32.015,3.355-43.325,6.701c-14.43,4.269-25.827,7.641-47.638,1.09
				c-17.174-5.16-42.811-10.372-61.181-13.165c-0.053-2.512-0.311-5.121-0.881-7.865c-0.19-0.914-0.369-1.861-0.541-2.823
				c2.061,0.327,4.23,0.676,6.515,1.044c19.641,3.16,46.541,7.488,66.186,7.488c18.155,0,40.377-2.192,61.865-4.312
				c26.755-2.639,54.423-5.37,71.473-3.449c33.835,3.807,83.122,1.56,109.706-0.947c0.001,0.301,0.001,0.603,0.005,0.892
				C412.962,328.071,413.473,331.784,414.122,336.485z M496.158,436.578c0,2.227-1.813,4.041-4.041,4.041H19.883
				c-2.227,0-4.041-1.812-4.041-4.041v-16.947c0-2.228,1.813-4.041,4.041-4.041h472.234c2.227,0,4.041,1.812,4.041,4.041V436.578z"
				/>
		</g>
	</g>
</g>
</svg>